<svg xmlns="http://www.w3.org/2000/svg" xmlns:xlink="http://www.w3.org/1999/xlink" width="400" zoomAndPan="magnify" viewBox="0 0 300 179.249993" height="239" preserveAspectRatio="xMidYMid meet" version="1.0"><defs><g/><clipPath id="id1"><path d="M 0.625 0 L 167.738281 0 L 167.738281 167.113281 L 0.625 167.113281 Z M 0.625 0 " clip-rule="nonzero"/></clipPath><clipPath id="id2"><path d="M 51.257812 36.359375 L 193.753906 36.359375 L 193.753906 178.503906 L 51.257812 178.503906 Z M 51.257812 36.359375 " clip-rule="nonzero"/></clipPath><clipPath id="id3"><path d="M 62.332031 47.433594 L 182.445312 47.433594 L 182.445312 167.546875 L 62.332031 167.546875 Z M 62.332031 47.433594 " clip-rule="nonzero"/></clipPath><clipPath id="id4"><path d="M 240 79 L 299.375 79 L 299.375 143 L 240 143 Z M 240 79 " clip-rule="nonzero"/></clipPath></defs><g clip-path="url(#id1)"><path fill="#ffbc66" d="M 84.183594 0 C 38.035156 0 0.625 37.410156 0.625 83.558594 C 0.625 129.703125 38.035156 167.113281 84.183594 167.113281 C 130.328125 167.113281 167.738281 129.703125 167.738281 83.558594 C 167.738281 37.410156 130.328125 0 84.183594 0 " fill-opacity="1" fill-rule="nonzero"/></g><g clip-path="url(#id2)"><path fill="#f3ede0" d="M 122.507812 36.359375 C 83.15625 36.359375 51.257812 68.257812 51.257812 107.609375 C 51.257812 146.957031 83.15625 178.855469 122.507812 178.855469 C 161.855469 178.855469 193.753906 146.957031 193.753906 107.609375 C 193.753906 68.257812 161.855469 36.359375 122.507812 36.359375 " fill-opacity="1" fill-rule="nonzero"/></g><g clip-path="url(#id3)"><path fill="#ffdab9" d="M 122.390625 47.433594 C 89.222656 47.433594 62.332031 74.324219 62.332031 107.492188 C 62.332031 140.660156 89.222656 167.546875 122.390625 167.546875 C 155.558594 167.546875 182.445312 140.660156 182.445312 107.492188 C 182.445312 74.324219 155.558594 47.433594 122.390625 47.433594 " fill-opacity="1" fill-rule="nonzero"/></g><g fill="#141515" fill-opacity="1"><g transform="translate(111.832342, 141.556435)"><g><path d="M 84.074219 -23.402344 C 79.453125 -11.753906 76.640625 -5.523438 73.527344 -5.523438 C 71.519531 -5.523438 70.210938 -7.632812 70.210938 -12.253906 C 70.210938 -15.667969 71.820312 -42.992188 71.820312 -49.722656 C 71.820312 -64.488281 66.09375 -70.714844 56.652344 -70.714844 C 46.105469 -70.714844 38.171875 -60.871094 32.445312 -44.195312 C 31.238281 -63.28125 25.613281 -71.71875 15.667969 -71.71875 C 11.351562 -71.71875 6.929688 -69.910156 4.019531 -65.492188 C 3.214844 -64.285156 2.613281 -62.679688 2.613281 -61.675781 C 2.613281 -59.96875 3.917969 -58.960938 5.324219 -58.960938 C 6.429688 -58.960938 7.632812 -59.464844 8.4375 -60.769531 C 10.847656 -64.6875 12.957031 -65.390625 15.46875 -65.390625 C 22.902344 -65.390625 25.914062 -54.542969 25.914062 -31.140625 C 25.914062 -19.6875 23.605469 -6.128906 23.605469 -3.316406 C 23.605469 -0.804688 25.210938 0.503906 26.917969 0.503906 C 28.628906 0.503906 30.335938 -0.804688 30.636719 -3.617188 C 31.039062 -7.433594 31.742188 -12.957031 32.34375 -19.085938 C 34.753906 -43.492188 45.703125 -64.386719 56.148438 -64.386719 C 61.273438 -64.386719 64.789062 -60.871094 64.789062 -49.21875 C 64.789062 -39.074219 63.179688 -18.683594 63.179688 -12.152344 C 63.179688 -3.816406 67.199219 0.601562 72.824219 0.601562 C 80.359375 0.601562 83.472656 -6.730469 88.894531 -21.292969 C 89.097656 -21.796875 89.199219 -22.300781 89.199219 -22.800781 C 89.199219 -24.507812 87.992188 -25.511719 86.6875 -25.511719 C 85.683594 -25.511719 84.675781 -24.910156 84.074219 -23.402344 Z M 84.074219 -23.402344 "/></g></g></g><g fill="#141515" fill-opacity="1"><g transform="translate(192.583051, 141.556435)"><g><path d="M 45.804688 -23.402344 C 41.886719 -14.164062 39.074219 -7.835938 34.65625 -4.117188 C 35.660156 -16.171875 36.363281 -27.421875 36.363281 -30.234375 C 36.363281 -35.660156 30.035156 -40.582031 21.796875 -40.582031 C 11.753906 -40.582031 2.410156 -31.238281 2.410156 -17.378906 C 2.410156 -7.632812 8.238281 -1.507812 16.472656 -1.507812 C 20.691406 -1.507812 24.910156 -3.515625 28.328125 -7.535156 C 28.226562 -5.023438 28.023438 -2.613281 27.824219 -0.503906 C 16.976562 5.023438 10.546875 9.441406 10.546875 16.773438 C 10.546875 21.394531 14.261719 25.113281 20.089844 25.113281 C 29.734375 25.113281 32.546875 16.675781 33.953125 3.917969 C 42.589844 -2.007812 46.40625 -9.945312 50.625 -21.292969 C 50.828125 -21.796875 50.925781 -22.300781 50.925781 -22.699219 C 50.925781 -24.410156 49.722656 -25.613281 48.414062 -25.613281 C 47.511719 -25.613281 46.507812 -24.910156 45.804688 -23.402344 Z M 17.074219 -7.734375 C 12.355469 -7.734375 9.039062 -11.148438 9.039062 -17.476562 C 9.039062 -27.121094 14.566406 -34.351562 22.699219 -34.351562 C 25.613281 -34.351562 28.628906 -32.746094 29.53125 -31.039062 C 29.128906 -19.789062 27.421875 -7.734375 17.074219 -7.734375 Z M 20.089844 18.882812 C 18.28125 18.882812 17.074219 17.777344 17.074219 16.070312 C 17.074219 12.957031 20.691406 9.84375 27.121094 6.429688 C 25.914062 15.167969 23.90625 18.882812 20.089844 18.882812 Z M 20.089844 18.882812 "/></g></g></g><g clip-path="url(#id4)"><g fill="#141515" fill-opacity="1"><g transform="translate(235.067562, 141.556435)"><g><path d="M 55.34375 -27.015625 C 55.34375 -18.109375 53.082031 -11.210938 48.5625 -6.328125 C 44.039062 -1.441406 37.929688 1 30.234375 1 C 25.484375 1 21.25 -0.0859375 17.53125 -2.265625 C 13.8125 -4.441406 10.878906 -7.617188 8.734375 -11.796875 C 6.597656 -15.984375 5.53125 -21.054688 5.53125 -27.015625 C 5.53125 -35.921875 7.753906 -42.785156 12.203125 -47.609375 C 16.660156 -52.429688 22.769531 -54.84375 30.53125 -54.84375 C 34.019531 -54.84375 37.269531 -54.238281 40.28125 -53.03125 C 43.289062 -51.832031 45.867188 -50.128906 48.015625 -47.921875 C 51.023438 -48.785156 52.898438 -50.523438 53.640625 -53.140625 C 54.378906 -55.753906 54.75 -58.734375 54.75 -62.078125 L 64.1875 -62.078125 L 64.890625 -60.96875 C 63.953125 -56.351562 62.53125 -52.488281 60.625 -49.375 C 58.71875 -46.257812 55.820312 -44 51.9375 -42.59375 C 53.007812 -40.445312 53.84375 -38.082031 54.4375 -35.5 C 55.039062 -32.925781 55.34375 -30.097656 55.34375 -27.015625 Z M 14.671875 -27.015625 C 14.671875 -20.253906 15.90625 -15.113281 18.375 -11.59375 C 20.851562 -8.082031 24.875 -6.328125 30.4375 -6.328125 C 36 -6.328125 40.015625 -8.082031 42.484375 -11.59375 C 44.960938 -15.113281 46.203125 -20.253906 46.203125 -27.015625 C 46.203125 -33.785156 44.929688 -38.875 42.390625 -42.28125 C 39.847656 -45.695312 35.832031 -47.40625 30.34375 -47.40625 C 24.84375 -47.40625 20.851562 -45.695312 18.375 -42.28125 C 15.90625 -38.875 14.671875 -33.785156 14.671875 -27.015625 Z M 14.671875 -27.015625 "/></g></g></g></g></svg>